<?xml version="1.0" standalone="no"?>
<!DOCTYPE svg PUBLIC "-//W3C//DTD SVG 20010904//EN"
 "http://www.w3.org/TR/2001/REC-SVG-20010904/DTD/svg10.dtd">
<svg version="1.0" xmlns="http://www.w3.org/2000/svg"
 width="1024.000000pt" height="1024.000000pt" viewBox="0 0 1024.000000 1024.000000"
 preserveAspectRatio="xMidYMid meet">

<g transform="translate(0.000000,1024.000000) scale(0.100000,-0.100000)"
fill="#00a3e4" stroke="none">
<path d="M4475 8565 c-469 -100 -848 -246 -1225 -474 -568 -344 -1037 -858
-1349 -1479 -126 -250 -258 -671 -292 -930 -11 -82 -11 -96 4 -127 30 -63 66
-76 190 -73 126 3 140 12 151 95 47 323 183 713 357 1022 323 572 768 1000
1354 1302 274 142 529 233 805 289 l134 27 73 143 c40 79 73 153 73 166 0 29
-54 74 -88 73 -15 0 -99 -15 -187 -34z"/>
<path d="M5505 8576 c-23 -23 -26 -34 -22 -62 6 -37 127 -273 153 -299 9 -8
29 -15 47 -15 47 0 299 -65 444 -114 357 -122 689 -305 988 -542 141 -112 397
-368 509 -509 321 -404 549 -904 641 -1404 13 -68 28 -128 35 -135 16 -16 204
-21 241 -6 46 19 89 75 89 115 0 52 -46 288 -79 407 -86 304 -247 672 -398
911 -220 348 -503 671 -778 891 -462 369 -987 617 -1590 751 -65 15 -149 29
-186 32 -63 5 -69 4 -94 -21z"/>
<path d="M5082 8283 c-17 -54 -49 -161 -72 -238 -76 -255 -147 -488 -205 -670
-97 -309 -216 -688 -232 -740 -8 -27 -59 -188 -114 -358 -89 -273 -103 -309
-129 -329 -25 -18 -112 -114 -177 -197 -19 -23 -68 -39 -523 -170 -74 -22
-297 -87 -495 -146 -641 -190 -1317 -384 -1428 -411 -15 -3 -26 -8 -23 -11 2
-3 40 -13 83 -22 195 -45 1885 -489 2290 -603 l181 -51 123 104 c68 57 162
136 210 175 l86 70 -38 64 c-50 82 -77 155 -97 260 -18 100 -7 210 33 315 68
182 241 336 426 380 117 27 227 19 394 -30 20 -6 31 1 378 263 48 37 87 72 87
78 0 13 -97 333 -160 529 -74 228 -229 731 -330 1070 -55 187 -116 390 -135
450 -18 61 -45 153 -60 205 -15 52 -31 99 -35 103 -4 4 -21 -36 -38 -90z m14
-1044 c-1 -818 -3 -933 -16 -939 -8 -5 -60 -29 -114 -55 -285 -132 -504 -382
-599 -680 -43 -133 -51 -192 -52 -358 l0 -157 -1185 1 -1185 0 100 29 c55 15
183 51 285 80 102 28 300 85 440 127 140 41 307 90 370 109 63 18 167 49 230
68 63 18 201 59 305 89 473 139 488 144 515 174 14 16 54 64 90 107 36 43 76
83 89 90 19 11 37 54 101 252 110 334 382 1201 512 1629 101 329 112 365 114
365 0 0 1 -419 0 -931z"/>
<path d="M4368 7809 c-64 -15 -351 -116 -446 -158 -124 -54 -317 -160 -432
-239 -186 -127 -215 -173 -169 -268 29 -61 76 -88 143 -82 45 4 69 15 182 90
230 153 466 265 704 337 145 43 182 67 202 132 15 51 3 103 -33 144 -25 28
-86 58 -109 54 -3 -1 -22 -5 -42 -10z"/>
<path d="M5780 7809 c-44 -9 -95 -64 -104 -112 -4 -20 -2 -54 4 -76 16 -61 61
-93 176 -125 261 -72 521 -197 768 -370 103 -71 151 -81 216 -45 54 30 80 74
80 133 0 41 -5 52 -42 93 -24 25 -99 83 -168 128 -221 147 -430 246 -679 325
-156 49 -205 58 -251 49z"/>
<path d="M3320 6796 c0 -7 560 -879 574 -894 10 -10 31 -4 108 32 52 25 107
48 121 51 20 6 30 18 43 58 9 29 34 99 56 155 22 57 36 107 32 112 -5 5 -189
101 -409 215 -220 114 -425 222 -456 241 -55 33 -69 39 -69 30z"/>
<path d="M6794 6735 c-51 -29 -253 -134 -450 -235 -198 -100 -363 -186 -368
-190 -5 -5 17 -75 50 -163 l58 -155 124 -50 124 -50 35 57 c20 31 89 137 153
236 64 99 172 266 240 370 68 105 130 200 138 213 22 35 -1 27 -104 -33z"/>
<path d="M2827 6728 c-60 -16 -138 -125 -270 -378 -115 -222 -219 -531 -204
-611 15 -78 110 -133 189 -110 69 21 92 54 133 187 20 65 46 144 57 174 41
107 137 297 212 417 66 106 76 127 76 168 0 88 -46 141 -140 160 -8 1 -32 -2
-53 -7z"/>
<path d="M7328 6730 c-70 -21 -118 -84 -118 -155 0 -41 12 -66 76 -165 97
-151 212 -414 274 -628 25 -87 65 -137 122 -152 91 -25 198 50 198 139 0 51
-89 319 -158 475 -67 152 -200 387 -250 439 -27 29 -80 58 -104 56 -7 0 -25
-4 -40 -9z"/>
<path d="M5867 5728 c-255 -187 -273 -202 -368 -317 -52 -63 -163 -197 -246
-298 l-153 -183 -1 -1288 c-1 -708 -4 -1273 -6 -1257 -16 113 -292 1242 -412
1685 l-51 185 38 35 c20 19 69 64 107 98 l70 64 -24 19 c-24 19 -24 19 -60 -8
-20 -14 -72 -56 -116 -93 -44 -36 -120 -99 -170 -140 -49 -40 -94 -77 -99 -81
-4 -4 17 -83 47 -176 84 -256 231 -728 426 -1376 195 -645 253 -832 260 -840
8 -8 22 34 130 393 44 146 102 339 129 430 28 91 55 181 60 200 22 80 305 989
361 1160 57 173 65 190 122 265 92 120 118 144 174 161 105 32 1530 414 1805
484 69 18 244 63 390 100 146 37 258 70 250 73 -8 4 -78 22 -155 42 -163 42
-772 215 -990 282 -82 25 -188 56 -235 70 -75 22 -173 51 -660 199 -204 62
-485 156 -494 165 -20 18 -45 8 -129 -53z m1373 -646 l175 -30 -755 -1 -756
-1 1 98 c0 53 -4 120 -8 148 l-8 51 588 -117 c323 -65 667 -131 763 -148z"/>
<path d="M1675 4561 c-60 -37 -70 -57 -69 -135 3 -179 132 -617 273 -926 237
-521 649 -1014 1133 -1357 338 -240 784 -446 1218 -562 133 -36 433 -93 457
-86 36 9 63 41 63 76 0 18 -29 87 -70 168 l-70 138 -111 22 c-485 97 -1002
336 -1409 652 -119 92 -357 323 -467 454 -100 118 -271 371 -342 505 -137 260
-254 593 -316 905 -15 72 -34 138 -42 148 -24 26 -205 25 -248 -2z"/>
<path d="M8312 4563 c-17 -14 -28 -49 -51 -163 -181 -883 -683 -1602 -1451
-2080 -313 -194 -701 -347 -1072 -423 -110 -22 -111 -22 -136 -62 -57 -88
-122 -229 -122 -262 0 -38 37 -83 68 -83 44 0 378 72 512 110 491 141 963 377
1308 655 533 429 913 972 1123 1605 60 181 124 441 135 546 7 67 -5 101 -51
144 -24 23 -36 25 -134 28 -92 3 -110 1 -129 -15z"/>
<path d="M2431 4408 c-88 -60 -94 -111 -31 -298 67 -198 154 -386 258 -554
121 -198 167 -227 272 -173 56 28 90 77 90 129 0 45 -14 75 -81 174 -101 150
-200 361 -254 539 -47 155 -81 196 -169 203 -41 3 -57 -1 -85 -20z"/>
<path d="M7653 4414 c-42 -21 -63 -57 -103 -174 -75 -219 -149 -376 -266 -561
-64 -100 -74 -123 -74 -161 0 -107 120 -189 208 -144 43 22 66 48 127 141 76
116 148 249 201 372 59 138 134 359 134 397 0 43 -44 111 -84 130 -43 20 -102
20 -143 0z"/>
<path d="M3759 3998 c-78 -123 -181 -284 -229 -358 -120 -186 -211 -332 -208
-335 2 -1 73 36 158 82 85 47 297 159 470 250 173 92 316 167 318 168 2 2 -15
47 -36 101 -22 55 -49 124 -60 154 l-20 55 -122 52 c-67 29 -124 53 -125 53
-2 0 -68 -100 -146 -222z"/>
<path d="M6199 4166 l-126 -51 -27 -75 c-15 -41 -40 -111 -56 -154 -16 -44
-28 -81 -27 -82 1 -1 56 -30 122 -64 251 -131 506 -267 658 -352 88 -49 161
-88 162 -86 2 2 -47 83 -108 181 -62 97 -191 303 -287 457 -96 153 -177 279
-180 279 -3 -1 -62 -24 -131 -53z"/>
<path d="M3380 3011 c-50 -26 -84 -96 -75 -151 10 -58 41 -90 184 -185 222
-147 430 -246 735 -350 134 -46 176 -56 209 -52 104 14 156 121 107 222 -24
49 -65 75 -170 104 -202 56 -475 179 -660 297 -202 129 -212 134 -255 134 -22
0 -56 -8 -75 -19z"/>
<path d="M6715 3016 c-16 -7 -93 -55 -170 -106 -147 -97 -388 -221 -515 -263
-41 -14 -122 -40 -180 -57 -123 -38 -164 -71 -175 -143 -15 -95 49 -173 140
-171 65 1 338 94 519 175 264 119 538 297 576 374 57 117 -73 244 -195 191z"/>
</g>
</svg>
